<svg width="173" height="173" viewBox="0 0 173 173" fill="none" xmlns="http://www.w3.org/2000/svg">
   <path
      d="M79.2918 36.0417V7.20831H93.7085V36.0417H79.2918ZM127.227 55.8646L117.136 45.7729L137.499 25.2292L147.591 35.501L127.227 55.8646ZM136.958 93.7083V79.2917H165.792V93.7083H136.958ZM137.499 147.591L117.136 127.227L127.227 117.135L147.771 137.319L137.499 147.591ZM45.7731 55.8646L25.4095 35.501L35.6814 25.2292L55.8647 45.7729L45.7731 55.8646ZM43.2501 136.958H75.6876C78.6911 136.958 81.2452 135.906 83.3501 133.801C85.4549 131.696 86.5049 129.145 86.5001 126.146C86.5001 123.142 85.4789 120.588 83.4366 118.483C81.3942 116.379 78.8713 115.329 75.8678 115.333H66.6772L63.0731 106.683C61.3911 102.719 58.7481 99.5639 55.1439 97.2188C51.5397 94.8737 47.5751 93.7035 43.2501 93.7083C37.2432 93.7083 32.1373 95.8108 27.9324 100.016C23.7276 104.22 21.6252 109.326 21.6252 115.333C21.6252 121.34 23.7276 126.446 27.9324 130.651C32.1373 134.856 37.2432 136.958 43.2501 136.958ZM43.2501 151.375C33.2786 151.375 24.78 147.86 17.7543 140.829C10.7286 133.799 7.2133 125.3 7.2085 115.333C7.2085 105.362 10.7238 96.8608 17.7543 89.8303C24.7848 82.7997 33.2834 79.2869 43.2501 79.2917C50.4585 79.2917 57.0373 81.2451 62.9865 85.152C68.9358 89.059 73.3497 94.3138 76.2282 100.917C83.1963 100.917 89.0543 103.5 93.8022 108.666C98.55 113.832 100.922 120.019 100.917 127.227C100.677 134.075 98.1224 139.813 93.2543 144.441C88.3863 149.068 82.5307 151.38 75.6876 151.375H43.2501ZM100.917 127.227C100.316 124.824 99.7154 122.482 99.1147 120.199C98.514 117.916 97.9133 115.574 97.3126 113.171C102.719 110.888 107.075 107.344 110.381 102.539C113.688 97.733 115.338 92.3868 115.333 86.5C115.333 78.5708 112.51 71.783 106.864 66.1365C101.217 60.4899 94.4293 57.6667 86.5001 57.6667C79.2918 57.6667 72.9845 60.0094 67.5783 64.6948C62.172 69.3802 58.9883 75.3271 58.0272 82.5354C55.6244 81.9347 53.1616 81.3941 50.6387 80.9136C48.1158 80.433 45.6529 79.8924 43.2501 79.2917C44.9321 68.7194 49.889 60.0694 58.1209 53.3417C66.3528 46.6139 75.8126 43.25 86.5001 43.25C98.514 43.25 108.726 47.4549 117.136 55.8646C125.545 64.2743 129.75 74.4861 129.75 86.5C129.75 95.7507 127.107 104.072 121.821 111.462C116.535 118.853 109.567 124.108 100.917 127.227Z"
      fill="white" />
</svg>